<svg width="11" height="8" viewBox="0 0 11 8" fill="none" xmlns="http://www.w3.org/2000/svg">
<path d="M10.3318 2.02542C10.3323 2.39351 10.206 2.75051 9.97411 3.0364L6.7001 7.00255C6.57628 7.15808 6.41898 7.28369 6.2399 7.37002C6.06083 7.45635 5.86459 7.50118 5.66579 7.50118C5.46699 7.50118 5.27075 7.45635 5.09167 7.37002C4.9126 7.28369 4.7553 7.15808 4.63148 7.00255L1.35746 3.0364C1.16615 2.79763 1.04576 2.50992 1.01001 2.20605C0.974263 1.90219 1.02459 1.59439 1.15527 1.31774C1.26125 1.0773 1.4342 0.872452 1.65346 0.727656C1.87273 0.58286 2.12903 0.504238 2.39177 0.501179L8.9398 0.501179C9.20254 0.504238 9.45885 0.58286 9.67811 0.727656C9.89738 0.872452 10.0703 1.0773 10.1763 1.31774C10.2774 1.54005 10.3304 1.78121 10.3318 2.02542V2.02542Z" fill="white"/>
</svg>
