<svg width="15" height="15" viewBox="0 0 15 15" fill="none" xmlns="http://www.w3.org/2000/svg">
<path d="M0.313429 0.327094C0.514179 0.126233 0.786417 0.0133947 1.07028 0.0133947C1.35414 0.0133947 1.62637 0.126233 1.82712 0.327094L7.49331 5.99817L13.1595 0.327094C13.2582 0.224762 13.3764 0.143138 13.507 0.0869858C13.6376 0.0308333 13.7781 0.00127669 13.9202 4.04536e-05C14.0623 -0.00119578 14.2033 0.0259132 14.3349 0.0797856C14.4664 0.133658 14.5859 0.213215 14.6865 0.313814C14.787 0.414413 14.8665 0.53404 14.9203 0.665715C14.9741 0.79739 15.0012 0.938475 15 1.08074C14.9987 1.223 14.9692 1.3636 14.9131 1.49431C14.857 1.62503 14.7754 1.74326 14.6732 1.84209L9.007 7.51317L14.6732 13.1842C14.8682 13.3863 14.9761 13.657 14.9736 13.9379C14.9712 14.2188 14.8586 14.4875 14.6601 14.6862C14.4617 14.8848 14.1932 14.9975 13.9125 15C13.6318 15.0024 13.3614 14.8944 13.1595 14.6992L7.49331 9.02817L1.82712 14.6992C1.62522 14.8944 1.35481 15.0024 1.07413 15C0.793446 14.9975 0.52495 14.8848 0.32647 14.6862C0.127989 14.4875 0.0154056 14.2188 0.0129665 13.9379C0.0105274 13.657 0.118428 13.3863 0.313429 13.1842L5.97961 7.51317L0.313429 1.84209C0.112741 1.64117 0 1.3687 0 1.08459C0 0.80049 0.112741 0.528017 0.313429 0.327094V0.327094Z" fill="#909090"/>
</svg>
