<svg width="15" height="15" viewBox="0 0 15 15" fill="none" xmlns="http://www.w3.org/2000/svg">
<path d="M14.0708 5.14385C14.5839 5.14385 15 4.72779 15 4.21461V0.929241C15 0.416052 14.5839 0 14.0708 0H10.7854C10.2722 0 9.85615 0.416052 9.85615 0.929241C9.85615 1.44243 10.2722 1.85848 10.7854 1.85848H11.8274L8.15718 5.5288C7.79428 5.89164 7.79428 6.48003 8.15718 6.84293C8.33863 7.02438 8.57646 7.11514 8.81422 7.11514C9.05204 7.11514 9.28987 7.02438 9.47126 6.84293L13.1414 3.17274V4.21461C13.1415 4.72779 13.5576 5.14385 14.0708 5.14385Z" fill="#909090"/>
<path d="M6.84293 8.15706C6.4801 7.79416 5.89176 7.79416 5.5288 8.15706L1.85848 11.8274V10.7854C1.85848 10.2722 1.44243 9.85615 0.929241 9.85615C0.416052 9.85615 0 10.2722 0 10.7854V14.0707C0 14.5839 0.41599 14.9999 0.929241 14.9999L4.21461 15C4.72773 15 5.14385 14.5839 5.14385 14.0708C5.14385 13.5576 4.72786 13.1415 4.21461 13.1415H3.17262L6.84293 9.4712C7.20583 9.1083 7.20583 8.5199 6.84293 8.15706Z" fill="#909090"/>
</svg>
