<svg width="72" height="72" viewBox="0 0 72 72" fill="none" xmlns="http://www.w3.org/2000/svg">
<path d="M36 4.5C44.907 4.734 52.3253 7.81575 58.2548 13.7453C64.1843 19.6748 67.266 27.093 67.5 36C67.266 44.907 64.1843 52.3253 58.2548 58.2548C52.3253 64.1843 44.907 67.266 36 67.5C27.093 67.266 19.6748 64.1843 13.7453 58.2548C7.81575 52.3253 4.734 44.907 4.5 36C4.734 27.093 7.81575 19.6748 13.7453 13.7453C19.6748 7.81575 27.093 4.734 36 4.5V4.5ZM36 18C34.7805 18 33.7725 18.4455 32.976 19.3365C32.1795 20.2275 31.8278 21.282 31.9208 22.5L33.5385 40.5C33.633 41.157 33.9023 41.6842 34.3463 42.0817C34.7903 42.4792 35.3407 42.6787 35.9977 42.6802C36.6547 42.6817 37.2052 42.4822 37.6492 42.0817C38.0932 41.6812 38.3625 41.154 38.457 40.5L40.0748 22.5C40.1693 21.2805 39.8175 20.226 39.0195 19.3365C38.2215 18.447 37.2135 18.0015 35.9955 18H36ZM36 54C37.032 53.9535 37.8878 53.6018 38.5673 52.9448C39.2468 52.2878 39.5865 51.444 39.5865 50.4135C39.5865 49.383 39.2468 48.5272 38.5673 47.8462C37.8878 47.1652 37.032 46.8255 36 46.827C34.968 46.8285 34.1123 47.1682 33.4328 47.8462C32.7533 48.5242 32.4135 49.38 32.4135 50.4135C32.4135 51.447 32.7533 52.2908 33.4328 52.9448C34.1123 53.5988 34.968 53.9505 36 54V54Z" fill="#E6A23C"/>
</svg>
